# xmcd
#
# Track frame offsets:
#	150
#	12034
#	21882
#	32882
#	43287
#	55900
#	64600
#	75027
#	84625
#	94597
#	105175
#	115445
#
# Disc length: 1668 seconds
#
# Revision: 0
# Processed by: cddbd v1.4PL0 Copyright (c) Steve Scherf et al.
# Submitted via: dBpowerAMP V4.0
#
DISCID=8606820c
DTITLE=Fats Domino - 36 All-Time Greates Hits Volume 1
DYEAR=1999
DGENRE=Blues
TTITLE0=Fat Man
TTITLE1=Goin' Home
TTITLE2=Ain't It A Shame
TTITLE3=Poor Me
TTITLE4=Bo Weevil
TTITLE5=I'm In Love Again
TTITLE6=When My Dreamboat
TTITLE7=My Blue Heaven
TTITLE8=So Long
TTITLE9=Blueberry Hill
TTITLE10=Blue Monday
TTITLE11=I'm Walkin'
EXTD=
EXTT0=
EXTT1=
EXTT2=
EXTT3=
EXTT4=
EXTT5=
EXTT6=
EXTT7=
EXTT8=
EXTT9=
EXTT10=
EXTT11=
PLAYORDER=
